<?xml version="1.0" encoding="UTF-8"?>
<svg id="Ebene_2" data-name="Ebene 2" xmlns="http://www.w3.org/2000/svg" viewBox="0 0 723.56 131.33">
  <defs>
    <style>
      .cls-1, .cls-2, .cls-3, .cls-4 {
        fill: none;
      }

      .cls-1, .cls-2, .cls-3, .cls-4, .cls-5 {
        stroke-miterlimit: 10;
      }

      .cls-1, .cls-2, .cls-5 {
        stroke-width: .5px;
      }

      .cls-1, .cls-3, .cls-4 {
        stroke: #000;
      }

      .cls-2, .cls-5 {
        stroke: red;
      }

      .cls-3 {
        stroke-width: 2px;
      }

      .cls-4 {
        stroke-width: 1.5px;
      }

      .cls-6 {
        font-family: MyriadPro-Regular, 'Myriad Pro';
        font-size: 12px;
      }

      .cls-5 {
        fill: red;
      }
    </style>
  </defs>
  <g id="Ebene_1-2" data-name="Ebene 1">
    <rect class="cls-3" x="1" y="1" width="721.56" height="129.33"/>
    <rect class="cls-4" x="1" y="1" width="65.78" height="50.22"/>
    <rect class="cls-4" x="1" y="65.67" width="65.78" height="64.67"/>
    <rect class="cls-4" x="97.44" y="1" width="64.11" height="34.44"/>
    <rect class="cls-4" x="161.56" y="1" width="31" height="34.44"/>
    <rect class="cls-4" x="192.56" y="1" width="15.78" height="34.44"/>
    <rect class="cls-4" x="208.33" y="1" width="23.56" height="34.44"/>
    <rect class="cls-4" x="231.89" y="1" width="16.83" height="34.44"/>
    <rect class="cls-4" x="66.78" y="82.11" width="39.11" height="48.22"/>
    <rect class="cls-4" x="105.89" y="82.11" width="31.11" height="48.22"/>
    <rect class="cls-4" x="137" y="82.11" width="39.56" height="48.22"/>
    <rect class="cls-4" x="176.56" y="82.11" width="39.11" height="48.22"/>
    <rect class="cls-4" x="215.67" y="82.11" width="63.44" height="48.22"/>
    <rect class="cls-4" x="279.11" y="82.11" width="62.78" height="48.22"/>
    <rect class="cls-4" x="341.89" y="82.11" width="63.33" height="48.22"/>
    <rect class="cls-4" x="405.22" y="82.11" width="47.33" height="48.22"/>
    <rect class="cls-4" x="452.56" y="82.11" width="55.11" height="48.22"/>
    <rect class="cls-4" x="507.67" y="82.11" width="39.78" height="48.22"/>
    <rect class="cls-4" x="610.33" y="65.44" width="112.22" height="64.89"/>
    <rect class="cls-4" x="547.44" y="82.11" width="62.89" height="48.22"/>
    <rect class="cls-4" x="610.33" y="1" width="112.22" height="50.44"/>
    <rect class="cls-4" x="610.33" y="1" width="31.11" height="34.44"/>
    <rect class="cls-4" x="610.33" y="35.44" width="31.11" height="16"/>
    <rect class="cls-4" x="571" y="1" width="39.33" height="34.44"/>
    <rect class="cls-4" x="450.72" y="1" width="25.61" height="34.44"/>
    <rect class="cls-4" x="507.67" y="1" width="63.33" height="34.44"/>
    <rect class="cls-4" x="476.33" y="1" width="31.33" height="34.44"/>
    <rect class="cls-4" x="255.44" y="51.22" width="149.78" height="14.44"/>
    <line class="cls-4" x1="610.33" y1="51.44" x2="610.33" y2="65.44"/>
    <line class="cls-4" x1="66.78" y1="51.22" x2="66.78" y2="65.67"/>
    <line class="cls-4" x1="223.22" y1="51.22" x2="160.89" y2="51.22"/>
    <line class="cls-4" x1="160.89" y1="65.67" x2="223.22" y2="65.67"/>
    <line class="cls-4" x1="98.56" y1="51.22" x2="98.56" y2="65.67"/>
    <line class="cls-4" x1="452.56" y1="51.22" x2="517.14" y2="51.22"/>
    <line class="cls-4" x1="517.14" y1="65.44" x2="452.56" y2="65.44"/>
    <line class="cls-4" x1="578.89" y1="51.22" x2="578.89" y2="65.44"/>
    <line class="cls-4" x1="152.22" y1="51.22" x2="98.56" y2="51.22"/>
    <line class="cls-4" x1="98.56" y1="65.67" x2="152.22" y2="65.67"/>
    <line class="cls-4" x1="223.22" y1="51.22" x2="223.22" y2="65.67"/>
    <rect class="cls-4" x="248.72" y="1" width="16.83" height="34.44"/>
    <rect class="cls-4" x="265.56" y="1" width="16.83" height="34.44"/>
    <rect class="cls-4" x="282.39" y="1" width="16.83" height="34.44"/>
    <rect class="cls-4" x="299.22" y="1" width="16.83" height="34.44"/>
    <rect class="cls-4" x="316.06" y="1" width="16.83" height="34.44"/>
    <rect class="cls-4" x="332.89" y="1" width="16.83" height="34.44"/>
    <rect class="cls-4" x="349.72" y="1" width="16.83" height="34.44"/>
    <rect class="cls-4" x="366.56" y="1" width="16.83" height="34.44"/>
    <rect class="cls-4" x="383.39" y="1" width="16.83" height="34.44"/>
    <rect class="cls-4" x="400.22" y="1" width="16.83" height="34.44"/>
    <rect class="cls-4" x="417.06" y="1" width="16.83" height="34.44"/>
    <rect class="cls-4" x="433.89" y="1" width="16.83" height="34.44"/>
    <line class="cls-4" x1="452.56" y1="51.22" x2="452.56" y2="65.44"/>
    <line class="cls-4" x1="527.56" y1="51.33" x2="578.89" y2="51.33"/>
    <line class="cls-4" x1="578.89" y1="65.56" x2="527.56" y2="65.56"/>
    <rect class="cls-4" x="66.78" y="1" width="30.67" height="34.44"/>
    <text class="cls-6" transform="translate(515.17 22.48)"><tspan x="0" y="0">WC</tspan></text>
    <rect class="cls-4" x="507.67" y="1" width="31.33" height="34.44"/>
    <text class="cls-6" transform="translate(546.44 22.48)"><tspan x="0" y="0">WC</tspan></text>
    <line class="cls-1" x1="193.9" y1="65.92" x2="193.9" y2="51.64"/>
    <line class="cls-1" x1="191.97" y1="65.92" x2="191.97" y2="51.64"/>
    <line class="cls-1" x1="190.04" y1="65.92" x2="190.04" y2="51.64"/>
    <line class="cls-1" x1="188.1" y1="65.92" x2="188.1" y2="51.64"/>
    <line class="cls-1" x1="186.17" y1="65.92" x2="186.17" y2="51.64"/>
    <line class="cls-1" x1="184.24" y1="65.92" x2="184.24" y2="51.64"/>
    <line class="cls-1" x1="182.34" y1="65.92" x2="182.34" y2="51.64"/>
    <line class="cls-1" x1="180.4" y1="65.92" x2="180.4" y2="51.64"/>
    <line class="cls-1" x1="178.47" y1="65.92" x2="178.47" y2="51.64"/>
    <line class="cls-1" x1="176.54" y1="65.92" x2="176.54" y2="51.64"/>
    <circle class="cls-2" cx="193.9" cy="58.78" r=".54"/>
    <line class="cls-1" x1="219.77" y1="65.92" x2="219.77" y2="51.64"/>
    <line class="cls-1" x1="217.84" y1="65.92" x2="217.84" y2="51.64"/>
    <line class="cls-1" x1="215.91" y1="65.92" x2="215.91" y2="51.64"/>
    <line class="cls-1" x1="213.97" y1="65.92" x2="213.97" y2="51.64"/>
    <line class="cls-1" x1="212.04" y1="65.92" x2="212.04" y2="51.64"/>
    <line class="cls-1" x1="210.11" y1="65.92" x2="210.11" y2="51.64"/>
    <line class="cls-1" x1="208.21" y1="65.92" x2="208.21" y2="51.64"/>
    <line class="cls-1" x1="206.27" y1="65.92" x2="206.27" y2="51.64"/>
    <line class="cls-1" x1="204.34" y1="65.92" x2="204.34" y2="51.64"/>
    <line class="cls-1" x1="202.41" y1="65.92" x2="202.41" y2="51.64"/>
    <circle class="cls-2" cx="219.77" cy="58.78" r=".54"/>
    <line class="cls-2" x1="219.24" y1="58.78" x2="204.34" y2="58.78"/>
    <polygon class="cls-5" points="204.34 58.78 204.34 59.96 202.41 58.78 204.34 57.59 204.34 58.78"/>
    <line class="cls-2" x1="193.37" y1="58.78" x2="178.47" y2="58.78"/>
    <polygon class="cls-5" points="178.47 58.78 178.47 59.96 176.54 58.78 178.47 57.59 178.47 58.78"/>
    <line class="cls-1" x1="118.83" y1="65.92" x2="118.83" y2="51.64"/>
    <line class="cls-1" x1="116.9" y1="65.92" x2="116.9" y2="51.64"/>
    <line class="cls-1" x1="114.97" y1="65.92" x2="114.97" y2="51.64"/>
    <line class="cls-1" x1="113.03" y1="65.92" x2="113.03" y2="51.64"/>
    <line class="cls-1" x1="111.1" y1="65.92" x2="111.1" y2="51.64"/>
    <line class="cls-1" x1="109.17" y1="65.92" x2="109.17" y2="51.64"/>
    <line class="cls-1" x1="107.27" y1="65.92" x2="107.27" y2="51.64"/>
    <line class="cls-1" x1="105.33" y1="65.92" x2="105.33" y2="51.64"/>
    <line class="cls-1" x1="103.4" y1="65.92" x2="103.4" y2="51.64"/>
    <line class="cls-1" x1="101.47" y1="65.92" x2="101.47" y2="51.64"/>
    <circle class="cls-2" cx="118.83" cy="58.78" r=".54"/>
    <line class="cls-1" x1="144.7" y1="65.92" x2="144.7" y2="51.64"/>
    <line class="cls-1" x1="142.77" y1="65.92" x2="142.77" y2="51.64"/>
    <line class="cls-1" x1="140.84" y1="65.92" x2="140.84" y2="51.64"/>
    <line class="cls-1" x1="138.9" y1="65.92" x2="138.9" y2="51.64"/>
    <line class="cls-1" x1="136.97" y1="65.92" x2="136.97" y2="51.64"/>
    <line class="cls-1" x1="135.04" y1="65.92" x2="135.04" y2="51.64"/>
    <line class="cls-1" x1="133.14" y1="65.92" x2="133.14" y2="51.64"/>
    <line class="cls-1" x1="131.2" y1="65.92" x2="131.2" y2="51.64"/>
    <line class="cls-1" x1="129.27" y1="65.92" x2="129.27" y2="51.64"/>
    <line class="cls-1" x1="127.34" y1="65.92" x2="127.34" y2="51.64"/>
    <circle class="cls-2" cx="144.7" cy="58.78" r=".54"/>
    <line class="cls-2" x1="144.17" y1="58.78" x2="129.27" y2="58.78"/>
    <polygon class="cls-5" points="129.27 58.78 129.27 59.96 127.34 58.78 129.27 57.59 129.27 58.78"/>
    <line class="cls-2" x1="118.3" y1="58.78" x2="103.4" y2="58.78"/>
    <polygon class="cls-5" points="103.4 58.78 103.4 59.96 101.47 58.78 103.4 57.59 103.4 58.78"/>
    <line class="cls-1" x1="483.39" y1="51.2" x2="483.39" y2="65.47"/>
    <line class="cls-1" x1="485.33" y1="51.2" x2="485.33" y2="65.47"/>
    <line class="cls-1" x1="487.26" y1="51.2" x2="487.26" y2="65.47"/>
    <line class="cls-1" x1="489.19" y1="51.2" x2="489.19" y2="65.47"/>
    <line class="cls-1" x1="491.13" y1="51.2" x2="491.13" y2="65.47"/>
    <line class="cls-1" x1="493.06" y1="51.2" x2="493.06" y2="65.47"/>
    <line class="cls-1" x1="494.96" y1="51.2" x2="494.96" y2="65.47"/>
    <line class="cls-1" x1="496.89" y1="51.2" x2="496.89" y2="65.47"/>
    <line class="cls-1" x1="498.83" y1="51.2" x2="498.83" y2="65.47"/>
    <line class="cls-1" x1="500.76" y1="51.2" x2="500.76" y2="65.47"/>
    <circle class="cls-2" cx="483.39" cy="58.33" r=".54"/>
    <line class="cls-1" x1="457.52" y1="51.2" x2="457.52" y2="65.47"/>
    <line class="cls-1" x1="459.46" y1="51.2" x2="459.46" y2="65.47"/>
    <line class="cls-1" x1="461.39" y1="51.2" x2="461.39" y2="65.47"/>
    <line class="cls-1" x1="463.32" y1="51.2" x2="463.32" y2="65.47"/>
    <line class="cls-1" x1="465.26" y1="51.2" x2="465.26" y2="65.47"/>
    <line class="cls-1" x1="467.19" y1="51.2" x2="467.19" y2="65.47"/>
    <line class="cls-1" x1="469.09" y1="51.2" x2="469.09" y2="65.47"/>
    <line class="cls-1" x1="471.02" y1="51.2" x2="471.02" y2="65.47"/>
    <line class="cls-1" x1="472.96" y1="51.2" x2="472.96" y2="65.47"/>
    <line class="cls-1" x1="474.89" y1="51.2" x2="474.89" y2="65.47"/>
    <circle class="cls-2" cx="457.52" cy="58.33" r=".54"/>
    <line class="cls-2" x1="458.06" y1="58.33" x2="472.96" y2="58.33"/>
    <polygon class="cls-5" points="472.96 58.33 472.96 57.15 474.89 58.33 472.96 59.52 472.96 58.33"/>
    <line class="cls-2" x1="483.93" y1="58.33" x2="498.83" y2="58.33"/>
    <polygon class="cls-5" points="498.83 58.33 498.83 57.15 500.76 58.33 498.83 59.52 498.83 58.33"/>
    <line class="cls-1" x1="558.46" y1="51.2" x2="558.46" y2="65.47"/>
    <line class="cls-1" x1="560.4" y1="51.2" x2="560.4" y2="65.47"/>
    <line class="cls-1" x1="562.33" y1="51.2" x2="562.33" y2="65.47"/>
    <line class="cls-1" x1="564.26" y1="51.2" x2="564.26" y2="65.47"/>
    <line class="cls-1" x1="566.2" y1="51.2" x2="566.2" y2="65.47"/>
    <line class="cls-1" x1="568.13" y1="51.2" x2="568.13" y2="65.47"/>
    <line class="cls-1" x1="570.03" y1="51.2" x2="570.03" y2="65.47"/>
    <line class="cls-1" x1="571.96" y1="51.2" x2="571.96" y2="65.47"/>
    <line class="cls-1" x1="573.9" y1="51.2" x2="573.9" y2="65.47"/>
    <line class="cls-1" x1="575.83" y1="51.2" x2="575.83" y2="65.47"/>
    <circle class="cls-2" cx="558.46" cy="58.33" r=".54"/>
    <line class="cls-1" x1="532.59" y1="51.2" x2="532.59" y2="65.47"/>
    <line class="cls-1" x1="534.53" y1="51.2" x2="534.53" y2="65.47"/>
    <line class="cls-1" x1="536.46" y1="51.2" x2="536.46" y2="65.47"/>
    <line class="cls-1" x1="538.39" y1="51.2" x2="538.39" y2="65.47"/>
    <line class="cls-1" x1="540.33" y1="51.2" x2="540.33" y2="65.47"/>
    <line class="cls-1" x1="542.26" y1="51.2" x2="542.26" y2="65.47"/>
    <line class="cls-1" x1="544.16" y1="51.2" x2="544.16" y2="65.47"/>
    <line class="cls-1" x1="546.09" y1="51.2" x2="546.09" y2="65.47"/>
    <line class="cls-1" x1="548.03" y1="51.2" x2="548.03" y2="65.47"/>
    <line class="cls-1" x1="549.96" y1="51.2" x2="549.96" y2="65.47"/>
    <circle class="cls-2" cx="532.59" cy="58.33" r=".54"/>
    <line class="cls-2" x1="533.13" y1="58.33" x2="548.03" y2="58.33"/>
    <polygon class="cls-5" points="548.03 58.33 548.03 57.15 549.96 58.33 548.03 59.52 548.03 58.33"/>
    <line class="cls-2" x1="559" y1="58.33" x2="573.9" y2="58.33"/>
    <polygon class="cls-5" points="573.9 58.33 573.9 57.15 575.83 58.33 573.9 59.52 573.9 58.33"/>
  </g>
</svg>